<svg width="29" height="29" viewBox="0 0 29 29" fill="none" xmlns="http://www.w3.org/2000/svg">
<path d="M21.8853 13.8947H10.3158L5.76842 3.94737H26.3005C27.063 3.94737 27.5449 4.76648 27.1746 5.43301L22.7594 13.3804C22.5831 13.6978 22.2484 13.8947 21.8853 13.8947Z" fill="#0000FF"/>
<path d="M0 1H4.42105L5.76842 3.94737M10.3158 13.8947H21.8853C22.2484 13.8947 22.5831 13.6978 22.7594 13.3804L27.1746 5.43301C27.5449 4.76648 27.063 3.94737 26.3005 3.94737H5.76842M10.3158 13.8947L5.76842 3.94737M10.3158 13.8947L7.77712 18.69C7.42453 19.356 7.90733 20.1579 8.66091 20.1579H26.1579" stroke="#0000FF" stroke-width="2"/>
<circle cx="8.84214" cy="26.0526" r="2.94737" fill="#0000FF"/>
<circle cx="23.579" cy="26.0526" r="2.94737" fill="#0000FF"/>
</svg>
